<?xml version="1.0" encoding="UTF-8"?>
<svg version="1.1" xmlns="http://www.w3.org/2000/svg" width="225" height="225">
<path d="M0 0 C3.91775762 3.33232059 7.58491213 6.88466233 11.19482422 10.54492188 C12.00435547 11.34414063 12.81388672 12.14335938 13.64794922 12.96679688 C35.54909641 35.78687332 42.78152655 65.33171066 42.47216797 96.09570312 C41.68682124 127.02898684 26.07710913 153.48712677 4.13232422 174.54492188 C-20.05137167 196.00037352 -49.63131078 203.28140406 -81.3828125 201.77978516 C-108.45465218 199.92195167 -132.98328616 186.62932042 -151.80517578 167.54492188 C-152.61470703 166.74570313 -153.42423828 165.94648438 -154.25830078 165.12304688 C-176.1822386 142.27922356 -183.39233686 112.7162283 -183.08251953 81.92382812 C-182.85628741 73.0557542 -181.5325553 64.96867514 -178.80517578 56.54492188 C-178.58023438 55.84592773 -178.35529297 55.14693359 -178.12353516 54.42675781 C-168.45686446 25.25365107 -147.9032272 1.36604268 -120.55322266 -12.60546875 C-81.92479062 -31.37724296 -33.73353101 -27.19121515 0 0 Z M-100.80517578 81.54492188 C-100.80517578 82.53492187 -100.80517578 83.52492188 -100.80517578 84.54492188 C-98.49517578 84.54492188 -96.18517578 84.54492188 -93.80517578 84.54492188 C-93.80517578 83.55492188 -93.80517578 82.56492187 -93.80517578 81.54492188 C-96.11517578 81.54492188 -98.42517578 81.54492188 -100.80517578 81.54492188 Z M-69.80517578 81.54492188 C-69.80517578 82.53492187 -69.80517578 83.52492188 -69.80517578 84.54492188 C-59.90517578 84.54492188 -50.00517578 84.54492188 -39.80517578 84.54492188 C-39.80517578 83.55492188 -39.80517578 82.56492187 -39.80517578 81.54492188 C-49.70517578 81.54492188 -59.60517578 81.54492188 -69.80517578 81.54492188 Z M-100.80517578 92.54492188 C-100.80517578 93.53492187 -100.80517578 94.52492188 -100.80517578 95.54492188 C-99.15517578 95.54492188 -97.50517578 95.54492188 -95.80517578 95.54492188 C-95.80517578 94.55492188 -95.80517578 93.56492187 -95.80517578 92.54492188 C-97.45517578 92.54492188 -99.10517578 92.54492188 -100.80517578 92.54492188 Z M-73.80517578 92.54492188 C-73.80517578 93.53492187 -73.80517578 94.52492188 -73.80517578 95.54492188 C-62.58517578 95.54492188 -51.36517578 95.54492188 -39.80517578 95.54492188 C-39.80517578 94.55492188 -39.80517578 93.56492187 -39.80517578 92.54492188 C-51.02517578 92.54492188 -62.24517578 92.54492188 -73.80517578 92.54492188 Z M-100.80517578 104.54492188 C-100.80517578 105.86492187 -100.80517578 107.18492187 -100.80517578 108.54492188 C-98.82517578 108.54492188 -96.84517578 108.54492188 -94.80517578 108.54492188 C-94.80517578 107.22492188 -94.80517578 105.90492188 -94.80517578 104.54492188 C-96.78517578 104.54492188 -98.76517578 104.54492188 -100.80517578 104.54492188 Z M-69.80517578 105.54492188 C-69.47517578 106.53492188 -69.14517578 107.52492187 -68.80517578 108.54492188 C-59.23517578 108.54492188 -49.66517578 108.54492188 -39.80517578 108.54492188 C-40.13517578 107.22492188 -40.46517578 105.90492188 -40.80517578 104.54492188 C-45.2634956 104.51600641 -49.72179148 104.49815206 -54.18017578 104.48242188 C-55.45119141 104.47404297 -56.72220703 104.46566406 -58.03173828 104.45703125 C-59.24345703 104.45380859 -60.45517578 104.45058594 -61.70361328 104.44726562 C-62.82429199 104.44202881 -63.9449707 104.43679199 -65.09960938 104.43139648 C-67.77384921 104.35870721 -67.77384921 104.35870721 -69.80517578 105.54492188 Z M-100.80517578 116.54492188 C-100.80517578 117.86492187 -100.80517578 119.18492187 -100.80517578 120.54492188 C-90.57517578 120.54492188 -80.34517578 120.54492188 -69.80517578 120.54492188 C-69.80517578 119.22492188 -69.80517578 117.90492188 -69.80517578 116.54492188 C-80.03517578 116.54492188 -90.26517578 116.54492188 -100.80517578 116.54492188 Z " fill="#263A79" transform="translate(182.80517578125,23.455078125)"/>
<path d="M0 0 C1.1104921 -0.08992218 2.22098419 -0.17984436 3.36512756 -0.27249146 C8.52383346 -0.51721855 13.67956284 -0.74607301 18.84277344 -0.86523438 C21.54761531 -0.935582 24.19343163 -1.10037507 26.89648438 -1.31640625 C42.24643408 -2.53585274 54.37644206 -0.84214588 66.43699646 8.90675354 C77.31959294 18.43483783 83.49739554 28.20275485 84.89643002 42.73926926 C85.55607725 52.81905592 85.09767202 62.86900668 84.5246582 72.9407959 C84.31467304 77.14987946 84.22883404 81.35753187 84.14816284 85.5707922 C83.98028863 94.26675116 83.73654825 102.96344678 83.26733398 111.64868164 C83.23772583 112.43763321 83.20811768 113.22658478 83.1776123 114.03944397 C82.86944748 118.9478668 81.8890334 121.66685718 78.36889648 125.12548828 C75.31884999 126.65051153 72.13306569 126.2903656 68.78564453 126.30249023 C67.61219482 126.31234703 67.61219482 126.31234703 66.41503906 126.32240295 C63.82023019 126.34215043 61.22547924 126.35380173 58.63061523 126.36376953 C57.74505259 126.36784506 56.85948994 126.37192059 55.94709206 126.37611961 C51.2599778 126.39698652 46.57289287 126.41128555 41.88574219 126.4206543 C37.04335245 126.43172018 32.20142207 126.46612021 27.35919476 126.505826 C23.63683719 126.53196616 19.91458949 126.54034381 16.19214821 126.54393578 C14.40716258 126.54880847 12.62218207 126.56044188 10.837286 126.57897377 C8.33793072 126.6033105 5.83976941 126.60241057 3.34033203 126.59545898 C2.60404068 126.60826904 1.86774933 126.6210791 1.10914612 126.63427734 C-3.74923468 126.58506617 -6.22451934 125.58379382 -9.63110352 122.12548828 C-10.81905025 119.74959481 -10.76706374 118.28720992 -10.78500366 115.63543701 C-10.79360413 114.69055923 -10.80220459 113.74568146 -10.81106567 112.77217102 C-10.81532562 111.73215439 -10.81958557 110.69213776 -10.82397461 109.62060547 C-10.8321521 108.5277977 -10.84032959 107.43498993 -10.84875488 106.30906677 C-10.87363743 102.68017124 -10.89013224 99.0513149 -10.90454102 95.42236328 C-10.90986469 94.18500679 -10.91518837 92.9476503 -10.92067337 91.67279816 C-10.94190909 86.47253641 -10.96103864 81.27228056 -10.97229576 76.07198715 C-10.98852648 68.62337574 -11.02168058 61.1752867 -11.07869661 53.72687221 C-11.12210344 47.85572321 -11.13804466 41.98473595 -11.14442825 36.11344147 C-11.1511526 33.61754895 -11.1664051 31.12166439 -11.19031906 28.62587738 C-11.2218788 25.1328296 -11.22202038 21.6411017 -11.21459961 18.14794922 C-11.23100494 17.11602951 -11.24741028 16.0841098 -11.26431274 15.0209198 C-11.2257015 10.58280027 -11.16790793 7.14740051 -8.44657898 3.50692749 C-5.3614604 0.89741359 -3.97324773 0.291257 0 0 Z M5.36889648 56.12548828 C5.36889648 57.11548828 5.36889648 58.10548828 5.36889648 59.12548828 C7.67889648 59.12548828 9.98889648 59.12548828 12.36889648 59.12548828 C12.36889648 58.13548828 12.36889648 57.14548828 12.36889648 56.12548828 C10.05889648 56.12548828 7.74889648 56.12548828 5.36889648 56.12548828 Z M36.36889648 56.12548828 C36.36889648 57.11548828 36.36889648 58.10548828 36.36889648 59.12548828 C46.26889648 59.12548828 56.16889648 59.12548828 66.36889648 59.12548828 C66.36889648 58.13548828 66.36889648 57.14548828 66.36889648 56.12548828 C56.46889648 56.12548828 46.56889648 56.12548828 36.36889648 56.12548828 Z M5.36889648 67.12548828 C5.36889648 68.11548828 5.36889648 69.10548828 5.36889648 70.12548828 C7.01889648 70.12548828 8.66889648 70.12548828 10.36889648 70.12548828 C10.36889648 69.13548828 10.36889648 68.14548828 10.36889648 67.12548828 C8.71889648 67.12548828 7.06889648 67.12548828 5.36889648 67.12548828 Z M32.36889648 67.12548828 C32.36889648 68.11548828 32.36889648 69.10548828 32.36889648 70.12548828 C43.58889648 70.12548828 54.80889648 70.12548828 66.36889648 70.12548828 C66.36889648 69.13548828 66.36889648 68.14548828 66.36889648 67.12548828 C55.14889648 67.12548828 43.92889648 67.12548828 32.36889648 67.12548828 Z M5.36889648 79.12548828 C5.36889648 80.44548828 5.36889648 81.76548828 5.36889648 83.12548828 C7.34889648 83.12548828 9.32889648 83.12548828 11.36889648 83.12548828 C11.36889648 81.80548828 11.36889648 80.48548828 11.36889648 79.12548828 C9.38889648 79.12548828 7.40889648 79.12548828 5.36889648 79.12548828 Z M36.36889648 80.12548828 C36.69889648 81.11548828 37.02889648 82.10548828 37.36889648 83.12548828 C46.93889648 83.12548828 56.50889648 83.12548828 66.36889648 83.12548828 C66.03889648 81.80548828 65.70889648 80.48548828 65.36889648 79.12548828 C60.91057667 79.09657282 56.45228079 79.07871847 51.99389648 79.06298828 C50.72288086 79.05460937 49.45186523 79.04623047 48.14233398 79.03759766 C46.93061523 79.034375 45.71889648 79.03115234 44.47045898 79.02783203 C43.34978027 79.02259521 42.22910156 79.0173584 41.07446289 79.01196289 C38.40022305 78.93927362 38.40022305 78.93927362 36.36889648 80.12548828 Z M5.36889648 91.12548828 C5.36889648 92.44548828 5.36889648 93.76548828 5.36889648 95.12548828 C15.59889648 95.12548828 25.82889648 95.12548828 36.36889648 95.12548828 C36.36889648 93.80548828 36.36889648 92.48548828 36.36889648 91.12548828 C26.13889648 91.12548828 15.90889648 91.12548828 5.36889648 91.12548828 Z " fill="#0389FA" transform="translate(76.631103515625,48.87451171875)"/>
<path d="M0 0 C1.1725131 0.95117134 2.33787015 1.91117009 3.5 2.875 C4.47453125 3.67550781 4.47453125 3.67550781 5.46875 4.4921875 C6.22671875 5.23855469 6.22671875 5.23855469 7 6 C7 6.66 7 7.32 7 8 C7.53109375 8.20625 8.0621875 8.4125 8.609375 8.625 C12.00773436 10.57961192 14.51055928 13.22123717 17.25 16 C17.80429688 16.5465625 18.35859375 17.093125 18.9296875 17.65625 C23 21.7466133 23 21.7466133 23 24 C23.79664063 24.309375 23.79664063 24.309375 24.609375 24.625 C28.00773436 26.57961192 30.51055928 29.22123717 33.25 32 C33.80429688 32.5465625 34.35859375 33.093125 34.9296875 33.65625 C39 37.7466133 39 37.7466133 39 40 C39.53109375 40.20625 40.0621875 40.4125 40.609375 40.625 C44.00773436 42.57961192 46.51055928 45.22123717 49.25 48 C49.80429688 48.5465625 50.35859375 49.093125 50.9296875 49.65625 C55 53.7466133 55 53.7466133 55 56 C55.598125 56.28875 56.19625 56.5775 56.8125 56.875 C59 58 59 58 62 60 C62.66 54.72 63.32 49.44 64 44 C66.25396825 48.50793651 66.25396825 48.50793651 65.53125 52.01953125 C65.29752686 53.17098633 65.29752686 53.17098633 65.05908203 54.34570312 C64.87458496 55.15974609 64.69008789 55.97378906 64.5 56.8125 C64.31421387 57.65619141 64.12842773 58.49988281 63.93701172 59.36914062 C57.33712451 87.78457703 38.96305443 113.55725335 14.3125 129.1875 C0.07860603 137.8774015 -14.55591224 143.10179414 -31 146 C-32.54300781 146.28037109 -32.54300781 146.28037109 -34.1171875 146.56640625 C-42.13211097 144.99165841 -49.39905033 134.74661179 -54.96875 129.1640625 C-55.88966431 128.24410492 -56.81057861 127.32414734 -57.75939941 126.37631226 C-59.69050868 124.44666452 -61.61982933 122.51525155 -63.54785156 120.58251953 C-66.02381758 118.1008007 -68.5043227 115.62367446 -70.98613739 113.14780617 C-73.3577637 110.78064264 -75.72559475 108.40969861 -78.09375 106.0390625 C-78.98735229 105.14748444 -79.88095459 104.25590637 -80.80163574 103.33731079 C-82.02421082 102.11000748 -82.02421082 102.11000748 -83.27148438 100.85791016 C-83.99348022 100.13511871 -84.71547607 99.41232727 -85.45935059 98.66763306 C-87 97 -87 97 -87 96 C-85.99632889 95.99857498 -84.99265778 95.99714996 -83.95857239 95.99568176 C-74.4974274 95.9790084 -65.03671235 95.93622457 -55.57579517 95.86790943 C-50.71184441 95.83362623 -45.84820817 95.80852739 -40.98413086 95.80444336 C-36.28948645 95.80016325 -31.59555174 95.77172464 -26.90112877 95.72656822 C-25.11063458 95.71358397 -23.3200555 95.70928883 -21.52952003 95.71384621 C-19.01995961 95.71874581 -16.51247854 95.69269119 -14.00317383 95.65942383 C-13.26374039 95.66804947 -12.52430695 95.67667511 -11.76246643 95.68556213 C-8.10405002 95.60432108 -6.09536472 95.06411546 -3.04101562 93.01062012 C-0.2871844 88.94855435 -0.2902489 85.97598311 -0.34057617 81.1706543 C-0.33009247 80.29210281 -0.31960876 79.41355133 -0.30880737 78.50837708 C-0.28007613 75.61329753 -0.28634661 72.71941522 -0.29296875 69.82421875 C-0.27985255 67.81352745 -0.26454857 65.80284933 -0.24714661 63.79219055 C-0.20727472 58.50675515 -0.19710472 53.22166426 -0.19311523 47.93609619 C-0.18378798 42.53997329 -0.14637694 37.14405317 -0.11132812 31.74804688 C-0.04672989 21.16537407 -0.0135081 10.58285271 0 0 Z " fill="#11114A" transform="translate(159,79)"/>
<path d="M0 0 C5.81015376 4.80284555 11.17161255 9.98539377 16.50024414 15.31494141 C17.9537779 16.76625302 19.41518173 18.20933488 20.87695312 19.65234375 C22.25077148 21.02326172 22.25077148 21.02326172 23.65234375 22.421875 C24.48757568 23.25299805 25.32280762 24.08412109 26.18334961 24.94042969 C28 27 28 27 28 29 C24.62529496 29.11689626 21.2511157 29.18747934 17.875 29.25 C16.92367187 29.28351563 15.97234375 29.31703125 14.9921875 29.3515625 C9.01168589 29.43462502 5.49414554 29.09630315 1 25 C-0.00005304 21.99984088 -0.11575585 20.02576244 -0.09765625 16.89453125 C-0.09443359 15.91162109 -0.09121094 14.92871094 -0.08789062 13.91601562 C-0.07951172 12.89185547 -0.07113281 11.86769531 -0.0625 10.8125 C-0.05798828 9.77673828 -0.05347656 8.74097656 -0.04882812 7.67382812 C-0.0370401 5.11582734 -0.02058515 2.55794267 0 0 Z " fill="#52BDF8" transform="translate(130,50)"/>
<path d="M0 0 C1.82734699 4.3399491 2.20483215 6.48187943 1 11 C1 10.01 1 9.02 1 8 C0.11554199 8.00523682 -0.76891602 8.01047363 -1.68017578 8.01586914 C-19.15122936 8.10536552 -36.55184776 8.04502302 -54 7 C-54.33 7.66 -54.66 8.32 -55 9 C-56.65 8.67 -58.3 8.34 -60 8 C-60 7.67 -60 7.34 -60 7 C-57.03 6.01 -54.06 5.02 -51 4 C-51.33 3.01 -51.66 2.02 -52 1 C-34.65725901 0.0948264 -17.36459701 -0.12585848 0 0 Z " fill="#0689F5" transform="translate(142,108)"/>
<path d="M0 0 C0.33 1.32 0.66 2.64 1 4 C21.13 4 41.26 4 62 4 C62.33 3.34 62.66 2.68 63 2 C63 2.99 63 3.98 63 5 C38.745 5.99 38.745 5.99 14 7 C14 7.66 14 8.32 14 9 C16.97 9.66 19.94 10.32 23 11 C23 11.33 23 11.66 23 12 C15.74 12 8.48 12 1 12 C1 13.32 1 14.64 1 16 C10.9 16 20.8 16 31 16 C31 16.33 31 16.66 31 17 C20.77 17 10.54 17 0 17 C-0.33 14.36 -0.66 11.72 -1 9 C-0.01 8.34 0.98 7.68 2 7 C1.34 6.67 0.68 6.34 0 6 C0 4.02 0 2.04 0 0 Z " fill="#1687E8" transform="translate(81,128)"/>
<path d="M0 0 C0.66 0 1.32 0 2 0 C-1.93579087 21.27786942 -14.05454533 38.84103884 -29 54 C-29.77859375 54.79148438 -30.5571875 55.58296875 -31.359375 56.3984375 C-40.68122816 65.31363264 -51.9033632 71.87009585 -63.625 77.125 C-64.27549316 77.42035645 -64.92598633 77.71571289 -65.59619141 78.02001953 C-69.54269873 79.6996678 -72.72387666 80.30261796 -77 80 C-74.05682723 78.03788482 -71.56689935 77.05489206 -68.25 75.875 C-57.64122323 71.86407545 -45.63871804 66.63871804 -37.53515625 58.53515625 C-35.99180509 56.99180509 -34.37590115 55.63177197 -32.6875 54.25 C-29.03154883 51.12943917 -26.0205829 47.72659866 -23 44 C-21.93458984 42.7315625 -21.93458984 42.7315625 -20.84765625 41.4375 C-20.11417969 40.550625 -19.38070312 39.66375 -18.625 38.75 C-17.93664062 37.91984375 -17.24828125 37.0896875 -16.5390625 36.234375 C-14.71636908 34.04042176 -14.71636908 34.04042176 -15 31 C-13.66951262 29.66382678 -12.33573357 28.33092877 -11 27 C-9.47063562 24.28465133 -9.47063562 24.28465133 -8.25 21.375 C-7.82203125 20.41335937 -7.3940625 19.45171875 -6.953125 18.4609375 C-5.87961327 16.12900946 -5.87961327 16.12900946 -6 14 C-5.34 14 -4.68 14 -4 14 C-3.79503906 13.24074219 -3.59007812 12.48148438 -3.37890625 11.69921875 C-3.10949219 10.70535156 -2.84007812 9.71148437 -2.5625 8.6875 C-2.29566406 7.70136719 -2.02882813 6.71523437 -1.75390625 5.69921875 C-1.21920575 3.78482474 -0.62855462 1.88566385 0 0 Z " fill="#05052F" transform="translate(220,140)"/>
<path d="M0 0 C1.77127007 0.00067978 1.77127007 0.00067978 3.57832336 0.00137329 C5.47544319 0.04782486 5.47544319 0.04782486 7.41088867 0.09521484 C8.71338058 0.10370453 10.0158725 0.11219421 11.35783386 0.12094116 C14.80921356 0.14377562 18.25906156 0.20264644 21.70983887 0.26916504 C25.23562907 0.33070743 28.76166851 0.3579813 32.2878418 0.38818359 C39.19797351 0.45239935 46.1070918 0.55471002 53.01635742 0.68115234 C52.68635742 1.34115234 52.35635742 2.00115234 52.01635742 2.68115234 C51.33841629 2.67004929 50.66047516 2.65894623 49.96199036 2.64750671 C42.90562108 2.53688447 35.84949812 2.46147246 28.79248047 2.40649414 C26.15891515 2.38135077 23.5254196 2.34723151 20.89208984 2.30395508 C17.10651434 2.24330024 13.32186144 2.21493964 9.53588867 2.19287109 C8.35863724 2.16706467 7.1813858 2.14125824 5.96846008 2.1146698 C-0.71282521 1.89465716 -0.71282521 1.89465716 -6.20361328 5.14916992 C-6.79102295 5.98472412 -7.37843262 6.82027832 -7.98364258 7.68115234 C-8.31364258 8.01115234 -8.64364258 8.34115234 -8.98364258 8.68115234 C-9.0812397 10.07170017 -9.10995902 11.46716132 -9.11062622 12.86112976 C-9.11344604 13.7625621 -9.11626587 14.66399445 -9.11917114 15.59274292 C-9.11714691 16.58960114 -9.11512268 17.58645935 -9.11303711 18.61352539 C-9.11478943 19.65741928 -9.11654175 20.70131317 -9.11834717 21.77684021 C-9.12277001 25.24886712 -9.11982512 28.72084361 -9.11645508 32.19287109 C-9.11712825 34.59845489 -9.11809838 37.00403863 -9.11935425 39.40962219 C-9.12083201 44.46294805 -9.11867509 49.51625627 -9.11401367 54.56958008 C-9.1083316 61.04500841 -9.11158522 67.52039516 -9.11758614 73.99582195 C-9.12120267 78.96894137 -9.12004786 83.94205096 -9.11745834 88.91517067 C-9.11679131 91.30217303 -9.11760971 93.68917628 -9.1199379 96.0761776 C-9.12248059 99.41807788 -9.11860025 102.75991133 -9.11303711 106.10180664 C-9.11506134 107.0885437 -9.11708557 108.07528076 -9.11917114 109.09191895 C-9.1048651 113.73675847 -8.94458934 118.11234798 -7.98364258 122.68115234 C-9.98100828 121.04051091 -10.89908982 120.14840865 -11.36675262 117.56400585 C-11.37048134 116.74126328 -11.37421005 115.91852072 -11.37805176 115.07084656 C-11.38940155 114.12459412 -11.40075134 113.17834167 -11.41244507 112.20341492 C-11.40951447 111.16699356 -11.40658386 110.1305722 -11.40356445 109.06274414 C-11.412034 107.96979034 -11.42050354 106.87683655 -11.42922974 105.75076294 C-11.45268416 102.12718153 -11.45361971 98.50402276 -11.45239258 94.88037109 C-11.45949003 92.36554289 -11.46718841 89.85071632 -11.47546387 87.33589172 C-11.48892881 82.05909895 -11.49064947 76.78241541 -11.48461914 71.50561523 C-11.4779845 65.41322959 -11.50081668 59.32145034 -11.53793287 53.22918767 C-11.57237177 47.36279757 -11.57896311 41.49664545 -11.57484436 35.63016701 C-11.57653856 33.13708505 -11.58620976 30.64399532 -11.60398865 28.15097618 C-11.62612261 24.66274365 -11.61650218 21.17597167 -11.59887695 17.68774414 C-11.6121402 16.65739548 -11.62540344 15.62704681 -11.6390686 14.56547546 C-11.58709231 10.13838444 -11.50537592 6.68431135 -8.81916809 3.03581238 C-5.53873576 0.3116955 -4.20627354 -0.05404206 0 0 Z " fill="#1881E7" transform="translate(76.983642578125,49.31884765625)"/>
<path d="M0 0 C1.65 1.65 3.3 3.3 5 5 C4.34 5.66 3.68 6.32 3 7 C2.79824556 9.63869583 2.719958 12.17428808 2.72875977 14.81445312 C2.72353302 15.62107895 2.71830627 16.42770477 2.71292114 17.2587738 C2.70266662 19.01302642 2.69689821 20.76730958 2.69503975 22.52159119 C2.69138834 25.2948541 2.67469672 28.06775545 2.65428162 30.84094238 C2.59874377 38.72641292 2.56813626 46.61193688 2.54370117 54.49755859 C2.52786278 59.31750752 2.49768419 64.1371997 2.45893669 68.95701599 C2.4472543 70.79745262 2.44135606 72.63793511 2.44125557 74.47840881 C2.4410644 77.04772904 2.42286401 79.61633679 2.40063477 82.18554688 C2.40521194 82.95132553 2.40978912 83.71710419 2.414505 84.50608826 C2.38526917 86.62194824 2.38526917 86.62194824 2 90 C0.515 90.99 0.515 90.99 -1 92 C-0.67 61.64 -0.34 31.28 0 0 Z " fill="#081453" transform="translate(159,79)"/>
<path d="M0 0 C6.93 0 13.86 0 21 0 C20.67 0.66 20.34 1.32 20 2 C15.05 2 10.1 2 5 2 C5 2.66 5 3.32 5 4 C5.89203125 3.98839844 6.7840625 3.97679688 7.703125 3.96484375 C8.87359375 3.95582031 10.0440625 3.94679688 11.25 3.9375 C12.41015625 3.92589844 13.5703125 3.91429688 14.765625 3.90234375 C18 4 18 4 19.74023438 4.48632812 C22.93736533 5.2130744 26.12690759 5.23611243 29.390625 5.31640625 C30.09523865 5.33718735 30.79985229 5.35796844 31.52581787 5.37937927 C33.76711681 5.44453837 36.00852864 5.50360248 38.25 5.5625 C39.77344897 5.60571726 41.29688671 5.64933257 42.8203125 5.69335938 C46.54675591 5.80018491 50.27332494 5.90154639 54 6 C53.67 7.32 53.34 8.64 53 10 C53 9.01 53 8.02 53 7 C52.11554199 7.00523682 51.23108398 7.01047363 50.31982422 7.01586914 C32.84877064 7.10536552 15.44815224 7.04502302 -2 6 C-2.33 6.66 -2.66 7.32 -3 8 C-4.65 7.67 -6.3 7.34 -8 7 C-8 6.67 -8 6.34 -8 6 C-5.03 5.01 -2.06 4.02 1 3 C0.67 2.01 0.34 1.02 0 0 Z " fill="#1D82DC" transform="translate(90,109)"/>
<path d="M0 0 C8.25 0 16.5 0 25 0 C25.33 1.65 25.66 3.3 26 5 C17.09 5 8.18 5 -1 5 C-0.67 3.35 -0.34 1.7 0 0 Z " fill="#F0FEFE" transform="translate(89,128)"/>
<path d="M0 0 C3.79160297 -0.05786668 7.58309311 -0.09355054 11.375 -0.125 C12.45523438 -0.14175781 13.53546875 -0.15851563 14.6484375 -0.17578125 C15.6796875 -0.18222656 16.7109375 -0.18867187 17.7734375 -0.1953125 C19.20308838 -0.21102295 19.20308838 -0.21102295 20.66162109 -0.22705078 C23 0 23 0 25 2 C25.33 2.99 25.66 3.98 26 5 C18.08 5 10.16 5 2 5 C1.34 3.35 0.68 1.7 0 0 Z " fill="#E6FDFE" transform="translate(88,104)"/>
<path d="M0 0 C7.26 0 14.52 0 22 0 C22 1.65 22 3.3 22 5 C14.41 5 6.82 5 -1 5 C-0.67 3.35 -0.34 1.7 0 0 Z " fill="#C3ECFD" transform="translate(88,115)"/>
<path d="M0 0 C0.99 0.99 1.98 1.98 3 3 C2.67 3.99 2.34 4.98 2 6 C1.88061589 8.47793696 1.81479492 10.92998076 1.79467773 13.40893555 C1.78477814 14.16039856 1.77487854 14.91186157 1.76467896 15.68609619 C1.73309504 18.16960501 1.70831884 20.65313296 1.68359375 23.13671875 C1.66302154 24.85879513 1.64202499 26.5808665 1.62062073 28.30293274 C1.56542766 32.83533666 1.51600618 37.36778594 1.46777344 41.90026855 C1.41753824 46.52535031 1.36186271 51.1503662 1.30664062 55.77539062 C1.19909287 64.85020414 1.09764036 73.92507486 1 83 C0.67 83 0.34 83 0 83 C0 55.61 0 28.22 0 0 Z " fill="#000F5E" transform="translate(159,79)"/>
<path d="M0 0 C6.93 0 13.86 0 21 0 C20.67 0.66 20.34 1.32 20 2 C15.05 2 10.1 2 5 2 C5 2.66 5 3.32 5 4 C9.29 4 13.58 4 18 4 C18 4.33 18 4.66 18 5 C12.06 5 6.12 5 0 5 C0 3.33333333 0 1.66666667 0 0 Z " fill="#1282E3" transform="translate(90,109)"/>
<path d="M0 0 C3.79160297 -0.05786668 7.58309311 -0.09355054 11.375 -0.125 C12.45523438 -0.14175781 13.53546875 -0.15851563 14.6484375 -0.17578125 C15.6796875 -0.18222656 16.7109375 -0.18867187 17.7734375 -0.1953125 C19.20308838 -0.21102295 19.20308838 -0.21102295 20.66162109 -0.22705078 C23 0 23 0 25 2 C25.33 2.99 25.66 3.98 26 5 C24.35 5 22.7 5 21 5 C21.33 3.68 21.66 2.36 22 1 C15.73 1 9.46 1 3 1 C2.67 2.32 2.34 3.64 2 5 C1.34 3.35 0.68 1.7 0 0 Z " fill="#AAE0FE" transform="translate(88,104)"/>
<path d="M0 0 C0.66 0.33 1.32 0.66 2 1 C2.33 2.32 2.66 3.64 3 5 C-5.91 5 -14.82 5 -24 5 C-23.34 3.68 -22.68 2.36 -22 1 C-22 1.99 -22 2.98 -22 4 C-15.07 4 -8.14 4 -1 4 C-0.67 2.68 -0.34 1.36 0 0 Z " fill="#8BD0FB" transform="translate(112,128)"/>
<path d="M0 0 C1.41750563 0.11509661 2.83401169 0.24253658 4.25 0.375 C5.03890625 0.44460937 5.8278125 0.51421875 6.640625 0.5859375 C9 1 9 1 13 3 C5.74 3 -1.52 3 -9 3 C-9 2.67 -9 2.34 -9 2 C-6.03 2 -3.06 2 0 2 C0 1.34 0 0.68 0 0 Z " fill="#218BE9" transform="translate(91,137)"/>
<path d="M0 0 C0.433125 0.9590625 0.433125 0.9590625 0.875 1.9375 C1.82823451 4.15206079 1.82823451 4.15206079 4 5 C3.525625 5.391875 3.05125 5.78375 2.5625 6.1875 C0.64820367 8.40808374 0.38733012 10.13375709 0 13 C-0.66 13 -1.32 13 -2 13 C-1.85915204 11.20793453 -1.71216299 9.41635083 -1.5625 7.625 C-1.48128906 6.62726563 -1.40007812 5.62953125 -1.31640625 4.6015625 C-1 2 -1 2 0 0 Z " fill="#1A2E67" transform="translate(2,90)"/>
<path d="M0 0 C0 0.66 0 1.32 0 2 C-1.32 2 -2.64 2 -4 2 C-3.67 2.99 -3.34 3.98 -3 5 C-3.99 6.485 -3.99 6.485 -5 8 C-5.12375 7.071875 -5.12375 7.071875 -5.25 6.125 C-5.81258459 3.81562433 -5.81258459 3.81562433 -8.0625 2.75 C-8.701875 2.5025 -9.34125 2.255 -10 2 C-10 1.67 -10 1.34 -10 1 C-6.56484998 0.37542727 -3.50935186 0 0 0 Z " fill="#1F336D" transform="translate(103,0)"/>
<path d="M0 0 C2.475 0.99 2.475 0.99 5 2 C4.67 2.99 4.34 3.98 4 5 C2.68 5 1.36 5 0 5 C0 3.35 0 1.7 0 0 Z " fill="#1E3369" transform="translate(176,20)"/>
</svg>
